<?xml version="1.0" encoding="utf-8"?>
<!-- Generator: Adobe Illustrator 21.0.0, SVG Export Plug-In . SVG Version: 6.00 Build 0)  -->
<svg version="1.1" id="图层_1" xmlns="http://www.w3.org/2000/svg" xmlns:xlink="http://www.w3.org/1999/xlink" x="0px" y="0px"
	 viewBox="0 0 343.3 151.7" style="enable-background:new 0 0 343.3 151.7;" xml:space="preserve">
<style type="text/css">
	.st0{fill:#088BDB;}
</style>
<g id="XMLID_1_">
	<g>
		<path class="st0" d="M323.6,56.4c10.7,0.1,19.8,9.1,19.7,19.8c-0.1,10.6-9,19.1-20.2,19.1c-11.3,0-19.8-8.5-19.8-19.6
			C303.3,64.9,312.4,56.3,323.6,56.4z M323.1,90.3c8.2,0,14.7-6.6,14.6-14.5c-0.1-7.8-6.8-14.5-14.2-14.5
			c-8.3,0.1-14.7,6.5-14.7,14.7C308.8,84.1,315.2,90.4,323.1,90.3z"/>
		<path class="st0" d="M297,56.4c1.9-0.3,2.6,0.4,2.5,2.4c-0.1,5.6,0,11.2,0,16.7c0,5.1,0,10.2,0,15.2c0,9.5-3.5,15.1-12.3,18.4
			c-9.9,3.8-21.2,1.5-27.3-8.1c-0.1-0.2-0.2-0.5-0.4-1c3.3,0.2,6.4-0.7,9.5,1.8c6.5,5.1,16.3,3.9,21.8-2c2.5-2.7,3.4-5.2,3-8.8
			c-10,9-23.1,7.3-30.3-0.4c-7-7.5-7.5-18.7-1.2-26.4c7.4-9,20.3-11.1,31.6-1.9c0-1.6,0.1-3,0-4.3s0.4-1.9,1.7-1.7
			C296,56.5,296.5,56.5,297,56.4z M278.8,91.9c8.5,0,15.1-6.9,15-15.6c-0.1-8-6.9-14.5-15.3-14.5c-8.2,0-15,6.9-15,15.1
			C263.5,85.5,270.1,92,278.8,91.9z"/>
		<path class="st0" d="M253.6,72.4c1.1,5.9,0.8,6.3-5.1,6.3c-8.8,0-17.7,0.1-26.5,0c-2.1,0-2.3,0.6-1.7,2.4
			c3.1,8.6,13.8,12.2,21.4,6.8c3-2.1,5.8-2.2,9.3-2c-5.4,8-13.6,11.2-22.6,8.9c-7.8-2-13.6-8.9-14.5-17.3c-1-9.3,5.4-18,14.8-20.4
			c11.4-2.9,22.4,3.8,24.7,15.1C253.6,72.3,253.6,72.4,253.6,72.4z M246.4,73.1c1.5,0,1.9-0.4,1.4-1.9c-1.8-5.5-7.8-9.9-13.5-9.8
			c-6.4,0-12,4-14,9.8c-0.5,1.5-0.2,1.9,1.3,1.9c4.1-0.1,8.2,0,12.3,0C238,73.1,242.2,73,246.4,73.1z"/>
		<path class="st0" d="M210.4,93.2c0,2.6-1.4,2.1-2.8,2.1s-2.9,0.6-2.8-2c0.1-16.7,0.1-33.4,0-50.1c0-2.3,1-2.4,2.7-2.3
			c1.5,0.1,3-0.5,3,2.2c-0.2,8.3-0.1,16.6-0.1,25C210.3,76.5,210.2,84.8,210.4,93.2z"/>
		<path class="st0" d="M201,93.1c0.1,2.3-0.9,2.4-2.6,2.3c-1.5-0.1-3.1,0.6-3-2.2c0.1-11.5,0.1-23,0-34.5c0-2.5,1.2-2.3,2.9-2.4
			c1.9-0.1,2.8,0.2,2.8,2.5c-0.2,5.7,0,11.5,0,17.2C201,81.7,200.8,87.4,201,93.1z"/>
		<path class="st0" d="M198.5,49.2c2.5-0.2,2.8,0.9,2.5,2.9c0.7,2.5-0.8,2.6-2.8,2.7c-2.6,0.2-2.6-1.1-2.7-3
			C195.1,49.1,196.6,49.3,198.5,49.2z"/>
		<path class="st0" d="M191.8,44.4c0.4,2.2-0.6,2.7-2.7,2.9c-6.4,0.6-14.4,5.7-13.6,15.8c0.1,1.3,0.4,1.7,1.7,1.7
			c4.3-0.1,8.5,0,12.7-0.1c1.4,0,1.8,0.4,1.8,1.8c0,3.7,0.1,3.7-3.6,3.7c-3.4,0-6.8,0.1-10.2,0c-1.8-0.1-2.4,0.4-2.4,2.3
			c0.1,6.7-0.1,13.5,0.1,20.2c0.1,2.8-1.4,2.5-3.2,2.6c-1.9,0.1-2.8-0.1-2.8-2.5c0.2-5.7,0.1-11.5,0.1-17.2c0-4.9,0-9.8,0-14.7
			c0-9.3,4.9-15.9,13.8-18.8c2.1-0.7,4.4-1.1,6.6-1.3c1.2-0.1,1.7,0.3,1.6,1.5C191.7,43.1,191.7,43.8,191.8,44.4z"/>
		<path class="st0" d="M147.9,143c0,2-1.3,2-2.5,1.9c-2.2-0.3-3,0.5-2.7,2.7c0.2,1.3-0.2,2.7-1.9,2.6c-1.6,0-1.8-1.3-1.6-2.5
			c0.2-2.1-0.3-3.2-2.7-2.8c-1.2,0.2-2.7,0.2-2.6-1.7c0.1-1.8,1.5-1.9,2.8-1.7c2.1,0.3,2.8-0.6,2.6-2.6c-0.1-1.2,0-2.5,1.6-2.6
			c1.7-0.1,2.1,1.3,1.9,2.6c-0.4,2.5,0.8,2.8,2.8,2.6C146.7,141.3,147.8,141.6,147.9,143z"/>
		<path class="st0" d="M128.5,44.8c11.7,4.6,14.3,14.3,6.7,24.3c-5.7,7.5-13.3,12.8-21.3,17.4c-3.1,1.7-6.2,3.4-9.4,4.9
			C87.7,99.5,70,104.6,51.4,107c-0.8,0.1-1.6,0.2-2.4,0.3c-4.2,0.5-8.5,0.6-12.4,0.9c-8-0.2-15.7-0.6-23.1-3.4
			c-0.2-0.1-0.3-0.1-0.5-0.2C1.7,100-1.1,90.6,6.1,80.8c4.9-6.7,11.4-11.6,18.3-15.9c1-0.6,1.8-0.8,2.6,0.3c0.3,0.4,0.4,0.8,0.4,1.1
			c0,0.7-0.6,1.3-1.3,1.7c-5.1,3.2-9.9,6.8-14,11.2c-1.6,1.6-2.9,3.4-4.1,5.3c-4.3,7-2.4,12.9,5.1,16.3c6.6,2.9,13.6,3.9,20.7,3.9
			c18.6-0.1,36.4-3.6,53.5-9.8c5.8-2.1,11.6-4.5,17.2-7.3c9.3-4.5,17.9-9.9,25.1-17.3c1.8-1.9,3.4-3.9,4.6-6.2
			c3.4-6.4,1.6-12-4.9-15.1c-4.5-2.1-9.3-3.1-14.2-3.7c-3.5-0.4-7-0.6-10.5-0.5c-0.5,0-1-0.1-1.4-0.3c-0.5-0.3-0.8-0.8-0.8-1.5
			c0-1.2,1-1.6,2.1-1.7C112.7,41.1,120.8,41.8,128.5,44.8z"/>
		<path class="st0" d="M135.5,5.1c0,1.1-2.6,3.8-3.5,3.5c-1.6-0.6-2.9-1.8-3.4-3.4c-0.3-1,2.4-3.6,3.5-3.5
			C133,1.7,135.5,4.1,135.5,5.1z"/>
		<path class="st0" d="M121.6,51.7c5.8,3.6,7.3,8.9,4.4,15c-2.7,5.7-7.3,9.6-12.3,13.2c-8.3,6-17.3,10.4-26.8,13.8
			c-5.7,2-11.5,3.7-17.4,5.2c-11.1,2.7-22.3,4.1-33.6,3.4c-5.7-0.3-11.2-1.5-16.1-4.6c-5-3.2-6.6-8.1-4.5-13.6
			c1.7-4.4,4.8-7.8,8.2-10.8c0.9-0.8,1.9-1.1,2.8,0c0.3,0.4,0.4,0.7,0.4,1c0,0.6-0.4,1.1-0.9,1.5c-2.3,2.1-4.5,4.2-6.1,6.9
			c-3.6,5.9-2.1,10.5,4.2,13.3c3.9,1.7,7.8,2.5,11.9,2.8c2.1,0.2,4.3,0.2,6.4,0.2c24.9-1.2,48.1-7.6,69-21.7c0.5-0.3,1-0.7,1.5-1
			c3.4-2.5,6.5-5.4,8.9-9c3.9-5.9,2.6-10.8-3.9-13.7c-2.6-1.2-5.3-1.8-8.1-2.3c-0.9-0.1-1.7-0.4-2-1c-0.1-0.3-0.2-0.7-0.1-1.2
			c0.2-1.6,1.4-1.5,2.7-1.4C114.2,48.4,118.1,49.5,121.6,51.7z"/>
		<path class="st0" d="M112.5,118.5c1.1,0,1.9,0.6,1.8,1.9c-0.1,1.2-0.8,1.6-1.9,1.5c-1.4-0.1-1.7,0.5-1.7,1.7
			c0.1,1-0.5,1.8-1.7,1.8c-1.2,0.1-1.9-0.5-1.8-1.8c0.1-1.3-0.4-1.8-1.7-1.7c-1,0.1-1.8-0.3-1.8-1.5c-0.1-1.1,0.6-1.9,1.6-1.9
			c1.4,0,2.1-0.4,2-2c-0.1-1,0.6-1.6,1.6-1.6c1.1-0.1,1.8,0.6,1.8,1.6C110.8,117.8,110.9,118.6,112.5,118.5z"/>
		<path class="st0" d="M112.4,71.5c0.1,1.3,0.1,2.6-1.6,2.7c-1.6,0.1-1.8-1.2-1.9-2.4c-1.1-10.8-5.8-19.6-14.1-26.6
			C83,35.3,63.4,34.1,50.7,42.8C33.8,54.2,28.5,73.9,37.3,92.4c0.3,0.5,0.5,1,0.7,1.6c0.3,1-0.1,1.7-0.9,2.1
			c-0.3,0.1-0.5,0.2-0.8,0.2c-0.7,0-1.2-0.6-1.6-1.3c-2.5-4.5-4.1-9.3-4.7-14.4c-0.3-2.2-0.4-4.3-0.4-6.4c0-2.5,0.3-5,0.7-7.4
			c1.7-9,6.3-16.9,13.9-23.5c8.2-7.1,18-10.2,30.3-9.8c10.4,1,19.6,5.1,26.7,12.7c1.5,1.7,3,3.5,4.3,5.4c1.1,1.6,2.1,3.3,3,5.1
			C110.6,61.3,112,66.3,112.4,71.5z"/>
		<path class="st0" d="M106.8,92.7c1.2,0.8,1,1.7,0.4,2.8c-2.1,3.5-4.6,6.8-7.5,9.6c-8,7.6-17.7,11.4-29.6,11.6
			c-5.8-0.1-12.1-1.5-18-4.7c-1.2-0.6-2.4-1.2-1.5-2.8c0.3-0.6,0.7-0.8,1.1-0.9c0.6-0.1,1.3,0.3,1.9,0.6c12.8,6.2,25.2,5.6,37.4-1.6
			c5-2.9,8.9-7,12-11.8c0.4-0.6,0.8-1.3,1.2-1.9c0.3-0.4,0.6-0.8,0.9-1.1C105.5,92.3,106.1,92.3,106.8,92.7z"/>
		<path class="st0" d="M89.3,58.3c3.8,0.1,7.3,4.1,7.2,8.4c-0.1,3.7-2.5,6.4-5.9,6.3c-3.8,0-7.3-4.1-7.3-8.4
			C83.4,61,86,58.2,89.3,58.3z M93,66.6c0-2.3-2-4.9-3.8-4.8c-1.7,0.2-2.1,1.5-2.2,2.9c-0.1,2.1,1.9,4.7,3.6,4.7
			C92.4,69.5,92.9,68.2,93,66.6z"/>
		<path class="st0" d="M73.4,88.3c0.5,0.9,0.7,1.7-0.2,2.4c-1,0.8-1.8,0.4-2.6-0.4c-3.6-3.5-6.4-3-8.5,1.6c-0.2,0.4-0.4,0.9-0.6,1.4
			c-0.5,0.9-1.2,1.1-2.1,0.8c-0.9-0.3-1.2-1.1-1.1-2c0.4-3.7,4.9-7.8,9-7.7C69.7,84.6,72,85.7,73.4,88.3z"/>
		<path class="st0" d="M73.6,19.1c0.1,1.1-2.1,3.6-3.3,3.7c-1.1,0.1-3.6-2.1-3.7-3.3c-0.1-1,2.3-3.6,3.4-3.7
			C70.9,15.8,73.5,18.1,73.6,19.1z"/>
		<path class="st0" d="M55.8,66.8c0.1,0.7,0.1,1.3,0.1,2.2c0,3.5-1.2,6.7-4,9.2c-4.3,3.7-10,2.7-12.6-2.3c-2.1-3.9-2.1-7.8-0.2-11.8
			c1.9-4.1,5.6-6.3,9.3-5.7C52.1,59,55.3,62.5,55.8,66.8z M50,75.3c1.7-1.8,2.4-3.9,2.4-6.9c0-0.6-0.1-1.8-0.6-2.9
			c-0.8-1.9-2.1-3.3-4.2-3.5c-2.1-0.3-3.6,1-4.7,2.7c-2,3-2.1,6.2-0.5,9.5C43.9,77.3,47.6,77.8,50,75.3z"/>
		<path class="st0" d="M25.8,24.5c0.1,1.6-1.1,1.8-2.4,1.8c-1.6,0-3.2,0.1-4.7,0c-1.3-0.1-1.8,0.3-1.7,1.7c0.1,1.7,0,3.5,0,5.2
			c0,1.2-0.5,2-1.7,2s-1.8-0.7-1.8-1.9c0-1.7-0.1-3.5,0-5.2c0.1-1.3-0.3-1.8-1.7-1.7c-1.6,0.1-3.1,0-4.7,0c-1.3,0-2.4-0.2-2.4-1.8
			c0-1.4,1.1-1.7,2.3-1.7c1.4,0,2.8-0.1,4.2,0c2,0.3,2.4-0.6,2.3-2.4c-0.1-1.5-0.1-3,0-4.5c0-1.1,0.6-1.8,1.8-2
			c1.2,0.2,1.7,0.9,1.7,2.1c0,1.6,0.1,3.2,0,4.7c-0.2,1.7,0.5,2.2,2.1,2c1.4-0.1,2.8,0,4.2,0C24.5,22.8,25.7,23,25.8,24.5z"/>
		<path class="st0" d="M16.9,136.1c0,1.1-0.6,1.8-1.6,1.7c-1.6-0.1-2,0.6-1.9,2c0.1,1-0.5,1.5-1.5,1.6c-1.1,0.1-1.9-0.3-1.9-1.4
			c0-1.5-0.2-2.4-2-2.2c-0.9,0.1-1.5-0.6-1.6-1.6c0-1.1,0.6-1.9,1.6-1.8c1.6,0.1,1.9-0.6,2-2c0-1,0.8-1.6,1.9-1.5
			c1,0.1,1.6,0.7,1.5,1.7c-0.1,1.4,0.4,1.9,1.8,1.8C16.2,134.3,16.8,134.9,16.9,136.1z"/>
	</g>
</g>
</svg>
